<svg width="42" height="47" viewBox="0 0 42 47" fill="none" xmlns="http://www.w3.org/2000/svg">
<path d="M2.5 1.99976L11.5 15.9998V45.4998" stroke="#B1855B" stroke-width="3"/>
<path d="M11.5 15.9998H25.5" stroke="#B1855B" stroke-width="3"/>
<path d="M2 31.9998H25" stroke="#B1855B" stroke-width="3"/>
<path d="M2 1.49976L24 1.49976" stroke="#B1855B" stroke-width="3"/>
<path d="M24 1.49976C26.1667 1.49976 30.5 2.89976 30.5 8.49976" stroke="#B1855B" stroke-width="3"/>
<path d="M25 15.9998C27.1667 15.9998 30.5 14.0998 30.5 8.49976" stroke="#B1855B" stroke-width="3"/>
<path d="M25 15.9998C27 16.6664 30.5 19.1998 30.5 23.9998" stroke="#B1855B" stroke-width="3"/>
<path d="M24.5 31.9998C26.5 31.9998 30.5 28.2998 30.5 23.4998" stroke="#B1855B" stroke-width="3"/>
<path d="M25 15.9998C30 16.3331 40 19.7998 40 30.9998" stroke="#B1855B" stroke-width="3"/>
<path d="M25 45C30 44.6667 40 41.2 40 30" stroke="#B1855B" stroke-width="3"/>
<path d="M25.5 45H11.5L2 31V0" stroke="#B1855B" stroke-width="3"/>
</svg>
